<svg width="16px" height="16px" viewBox="0 0 24 24" fill="none" xmlns="http://www.w3.org/2000/svg">
<g clip-path="url(#clip0_101_23)">
<path d="M19.4079 13.0863C19.4079 13.0645 19.4062 11.8768 19.4045 11.8551H24.0001V23.7707H12.0828V11.8551H16.6783C16.6783 11.8768 16.675 13.0645 16.675 13.0863M22.1191 22.4962H22.9376L21.6965 18.2782H20.4519L19.4296 22.4962H20.2231L20.4302 21.5573H21.8485L22.1174 22.4962H22.1191ZM17.7708 22.4962H18.5543L19.5599 18.2782H18.7865L18.17 21.1848H18.16L17.5753 18.2782H16.837L16.1855 21.1497H16.1755L15.6359 18.2782H14.8474L15.7562 22.4962H16.5547L17.1811 19.6246H17.1911L17.7708 22.4962ZM20.9264 19.3172H21.2588L21.6547 20.8657H20.5822L20.9264 19.3172Z" fill="#606060"/>
<path d="M11.6935 5.17811C11.6935 6.94883 10.2234 8.5191 8.35247 8.5191H1.67049V11.8601H0V0.166626H8.35247C10.1399 0.166626 11.6433 1.65337 11.6935 3.50761V5.17811ZM10.023 3.50761C10.023 2.58884 9.27124 1.83712 8.35247 1.83712H1.67049V6.8486H8.35247C9.27124 6.8486 10.023 6.09688 10.023 5.17811V3.50761Z" fill="#606060"/>
<path d="M18.8766 8.185V11.8601H17.2061V8.185L12.1946 2.67237V0.166626H13.8651V1.98746L18.0413 6.58132L22.2175 1.98746V0.166626H23.888V2.67237L18.8766 8.185Z" fill="#606060"/>
</g>
<defs>
<clipPath id="clip0_101_23">
<rect width="24" height="24" fill="white"/>
</clipPath>
</defs>
</svg>
